<svg width="189" height="189" viewBox="0 0 189 189" fill="none" xmlns="http://www.w3.org/2000/svg">
<path d="M170.327 7.98526L62.7795 7.76476C52.479 7.76476 44.1 16.1438 44.1 26.4443V42.5849L18.6795 42.6384C8.379 42.6384 0 51.0174 0 61.3179V127.912C0 138.213 8.379 146.588 18.6795 146.588H37.8V178.088C37.8 179.389 38.6001 180.558 39.816 181.027C40.1846 181.169 40.5689 181.238 40.95 181.238C41.8194 181.238 42.673 180.876 43.281 180.208L73.8486 146.582L126.221 146.368C136.521 146.368 144.9 137.989 144.9 127.692V127.336L161.469 145.562C162.077 146.229 162.931 146.592 163.8 146.592C164.181 146.592 164.565 146.522 164.934 146.381C166.15 145.911 166.95 144.743 166.95 143.442V111.942H170.321C180.621 111.942 189 103.563 189 93.2652V26.6648C189 16.3674 180.624 7.98841 170.327 7.98526ZM138.6 127.688C138.6 134.514 133.047 140.065 126.208 140.065L72.4374 140.285C71.5554 140.288 70.7112 140.663 70.119 141.315L44.1 169.939V143.435C44.1 141.696 42.692 140.285 40.95 140.285H18.6795C11.8534 140.285 6.3 134.732 6.3 127.909V61.3148C6.3 54.4887 11.8535 48.9353 18.6858 48.9353L47.25 48.8754C47.2532 48.8754 47.2532 48.8754 47.2563 48.8754L126.221 48.7116C133.047 48.7116 138.6 54.2651 138.6 61.0911V119.18V127.688ZM182.7 93.2589C182.7 100.085 177.147 105.635 170.321 105.635H163.8C162.058 105.635 160.65 107.046 160.65 108.785V135.289L144.9 117.964V61.0943C144.9 50.7938 136.521 42.4148 126.214 42.4148L50.4 42.5691V26.4411C50.4 19.6151 55.9534 14.0616 62.7732 14.0616L170.317 14.2821C170.321 14.2821 170.32 14.2821 170.324 14.2821C177.15 14.2821 182.703 19.8356 182.703 26.6616V93.2589H182.7Z" fill="#3F4C79"/>
<path d="M48.9339 74.872C50.0859 74.872 51.0832 75.256 51.9259 76.024C52.7685 76.792 53.1899 77.7467 53.1899 78.888C53.1899 80.36 52.5659 81.448 51.3179 82.152C50.3152 82.7173 49.0192 83 47.4299 83V71.48H52.5819V72.952H48.9339V74.872ZM48.9339 76.36V81.528C49.6592 81.528 50.2939 81.272 50.8379 80.76C51.3925 80.2373 51.6699 79.6133 51.6699 78.888C51.6699 78.1627 51.3979 77.56 50.8539 77.08C50.3099 76.6 49.6699 76.36 48.9339 76.36ZM55.7988 77.992C55.9908 79.1227 56.5294 80.0667 57.4148 80.824C58.3108 81.5707 59.3294 81.944 60.4708 81.944V83.448C58.7641 83.448 57.3081 82.84 56.1028 81.624C54.8974 80.408 54.2948 78.9467 54.2948 77.24C54.2948 75.5227 54.8921 74.0613 56.0868 72.856C57.2921 71.64 58.7534 71.032 60.4708 71.032V72.536C59.3188 72.536 58.3001 72.9093 57.4148 73.656C56.5294 74.4027 55.9908 75.3467 55.7988 76.488H60.4708V77.992H55.7988ZM72.1441 81.928C70.9388 82.9413 69.5895 83.448 68.0961 83.448C66.4001 83.448 64.9441 82.84 63.7281 81.624C62.5121 80.3973 61.9041 78.936 61.9041 77.24C61.9041 75.5333 62.5068 74.072 63.7121 72.856C64.9281 71.64 66.3895 71.032 68.0961 71.032C69.6001 71.032 70.9495 71.5493 72.1441 72.584V74.872C71.7175 74.136 71.1468 73.56 70.4321 73.144C69.7281 72.728 68.9495 72.52 68.0961 72.52C66.8055 72.52 65.7015 72.984 64.7841 73.912C63.8668 74.84 63.4081 75.9493 63.4081 77.24C63.4081 78.5413 63.8615 79.656 64.7681 80.584C65.6855 81.5013 66.7948 81.96 68.0961 81.96C68.9281 81.96 69.7068 81.752 70.4321 81.336C71.1575 80.9093 71.7281 80.3333 72.1441 79.608V81.928ZM74.9863 77.992C75.1783 79.1227 75.7169 80.0667 76.6023 80.824C77.4983 81.5707 78.5169 81.944 79.6583 81.944V83.448C77.9516 83.448 76.4956 82.84 75.2903 81.624C74.0849 80.408 73.4823 78.9467 73.4823 77.24C73.4823 75.5227 74.0796 74.0613 75.2743 72.856C76.4796 71.64 77.9409 71.032 79.6583 71.032V72.536C78.5063 72.536 77.4876 72.9093 76.6023 73.656C75.7169 74.4027 75.1783 75.3467 74.9863 76.488H79.6583V77.992H74.9863ZM90.3076 83H80.5156V81.624H81.9876V74.408C81.9876 73.4907 82.329 72.7013 83.0116 72.04C83.6943 71.368 84.4943 71.032 85.4116 71.032C86.329 71.032 87.129 71.368 87.8116 72.04C88.4943 72.7013 88.8356 73.4907 88.8356 74.408V81.624H90.3076V83ZM83.4916 81.624H87.3316V74.408C87.3316 73.896 87.1396 73.4533 86.7556 73.08C86.3716 72.7067 85.9236 72.52 85.4116 72.52C84.8996 72.52 84.4516 72.7067 84.0676 73.08C83.6836 73.4533 83.4916 73.896 83.4916 74.408V81.624ZM97.5765 71.48V83H96.0725V80.008H92.5685C92.1845 81 91.9338 81.9973 91.8165 83H90.3125C90.5792 80.696 91.3632 78.5093 92.6645 76.44C93.9765 74.3707 95.6138 72.7173 97.5765 71.48ZM93.1925 78.536H96.0725V74.536C94.8885 75.6987 93.9285 77.032 93.1925 78.536ZM16.7239 115H15.2199V106.408C15.2199 105.821 15.0439 105.352 14.6919 105C14.3399 104.637 13.8706 104.456 13.2839 104.456C12.7079 104.456 12.2386 104.637 11.8759 105C11.5239 105.363 11.3479 105.832 11.3479 106.408V115H9.84394V106.408C9.84394 105.437 10.1746 104.632 10.8359 103.992C11.4973 103.352 12.3133 103.032 13.2839 103.032C14.2653 103.032 15.0813 103.352 15.7319 103.992C16.3933 104.632 16.7239 105.437 16.7239 106.408V115ZM19.8066 109.992C19.9986 111.123 20.5372 112.067 21.4226 112.824C22.3186 113.571 23.3372 113.944 24.4786 113.944V115.448C22.7719 115.448 21.3159 114.84 20.1106 113.624C18.9052 112.408 18.3026 110.947 18.3026 109.24C18.3026 107.523 18.8999 106.061 20.0946 104.856C21.2999 103.64 22.7612 103.032 24.4786 103.032V104.536C23.3266 104.536 22.3079 104.909 21.4226 105.656C20.5372 106.403 19.9986 107.347 19.8066 108.488H24.4786V109.992H19.8066ZM27.8479 111.608V115H26.3439V103.48C27.3573 103.48 28.1733 103.544 28.7919 103.672C29.7413 103.864 30.5359 104.328 31.1759 105.064C31.8159 105.8 32.1359 106.643 32.1359 107.592C32.1359 108.733 31.7093 109.688 30.8559 110.456C30.0026 111.224 28.9999 111.608 27.8479 111.608ZM27.8479 110.12C28.5733 110.12 29.2186 109.88 29.7839 109.4C30.3493 108.909 30.6319 108.307 30.6319 107.592C30.6319 106.877 30.3439 106.275 29.7679 105.784C29.2133 105.325 28.5733 105.096 27.8479 105.096V110.12ZM33.7189 103.48C35.1696 103.48 36.3536 103.715 37.2709 104.184C38.4656 104.781 39.0629 105.736 39.0629 107.048C39.0629 107.656 38.8229 108.205 38.3429 108.696C39.1003 109.283 39.4789 110.195 39.4789 111.432C39.4789 112.648 39.0576 113.565 38.2149 114.184C37.4683 114.728 36.4709 115 35.2229 115H33.7189V103.48ZM35.2229 105.048V113.528C36.0016 113.528 36.6363 113.379 37.1269 113.08C37.7136 112.717 38.0069 112.168 38.0069 111.432C38.0069 110.301 37.3669 109.464 36.0869 108.92C37.0683 108.44 37.5589 107.816 37.5589 107.048C37.5589 106.461 37.3083 105.981 36.8069 105.608C36.3696 105.277 35.8416 105.091 35.2229 105.048ZM46.8067 103.032C48.524 103.032 49.98 103.64 51.1747 104.856C52.38 106.061 52.9827 107.523 52.9827 109.24C52.9827 110.947 52.38 112.408 51.1747 113.624C49.9694 114.84 48.5134 115.448 46.8067 115.448C45.1 115.448 43.644 114.84 42.4387 113.624C41.2334 112.408 40.6307 110.947 40.6307 109.24C40.6307 107.523 41.228 106.061 42.4227 104.856C43.628 103.64 45.0894 103.032 46.8067 103.032ZM46.8067 104.504C45.516 104.504 44.412 104.973 43.4947 105.912C42.588 106.84 42.1347 107.949 42.1347 109.24C42.1347 110.531 42.588 111.645 43.4947 112.584C44.412 113.512 45.516 113.976 46.8067 113.976C48.0974 113.976 49.196 113.512 50.1027 112.584C51.02 111.656 51.4787 110.541 51.4787 109.24C51.4787 107.939 51.0254 106.824 50.1187 105.896C49.212 104.968 48.108 104.504 46.8067 104.504ZM56.0667 108.456C56.7814 108.36 57.48 107.987 58.1627 107.336C58.7494 106.781 59.224 106.131 59.5867 105.384C59.8747 104.797 60.056 104.163 60.1307 103.48H61.6027C61.496 104.792 61.0907 105.955 60.3867 106.968C59.6827 107.981 58.7334 108.771 57.5387 109.336C57.784 110.371 58.264 111.32 58.9787 112.184C59.7574 113.112 60.632 113.693 61.6027 113.928V115.416C60.0347 114.968 58.8134 114.232 57.9387 113.208C57.1494 112.291 56.536 111 56.0987 109.336H56.0667V115H54.5627V103.48H56.0667V108.456ZM64.0402 115.416V113.992C65.5655 113.992 66.4509 113.624 66.6962 112.888C66.7709 112.664 66.8082 112.237 66.8082 111.608C65.6669 111.608 64.6749 111.224 63.8322 110.456C62.9895 109.677 62.5682 108.723 62.5682 107.592V103.48H64.0402V107.592C64.0402 108.307 64.3282 108.909 64.9042 109.4C65.4482 109.88 66.0829 110.12 66.8082 110.12V103.48H68.3122V112.04C68.3122 113.299 67.8962 114.2 67.0642 114.744C66.3815 115.192 65.3735 115.416 64.0402 115.416ZM71.7386 111.608V115H70.2346V103.48C71.2479 103.48 72.0639 103.544 72.6826 103.672C73.6319 103.864 74.4266 104.328 75.0666 105.064C75.7066 105.8 76.0266 106.643 76.0266 107.592C76.0266 108.733 75.5999 109.688 74.7466 110.456C73.8932 111.224 72.8906 111.608 71.7386 111.608ZM71.7386 110.12C72.4639 110.12 73.1092 109.88 73.6746 109.4C74.2399 108.909 74.5226 108.307 74.5226 107.592C74.5226 106.877 74.2346 106.275 73.6586 105.784C73.1039 105.325 72.4639 105.096 71.7386 105.096V110.12ZM87.4176 113.928C86.2122 114.941 84.8629 115.448 83.3696 115.448C81.6736 115.448 80.2176 114.84 79.0016 113.624C77.7856 112.397 77.1776 110.936 77.1776 109.24C77.1776 107.533 77.7802 106.072 78.9856 104.856C80.2016 103.64 81.6629 103.032 83.3696 103.032C84.8736 103.032 86.2229 103.549 87.4176 104.584V106.872C86.9909 106.136 86.4202 105.56 85.7056 105.144C85.0016 104.728 84.2229 104.52 83.3696 104.52C82.0789 104.52 80.9749 104.984 80.0576 105.912C79.1402 106.84 78.6816 107.949 78.6816 109.24C78.6816 110.541 79.1349 111.656 80.0416 112.584C80.9589 113.501 82.0682 113.96 83.3696 113.96C84.2016 113.96 84.9802 113.752 85.7056 113.336C86.4309 112.909 87.0016 112.333 87.4176 111.608V113.928ZM89.1877 103.48H90.6917V108.616H94.9477V103.48H96.4517V108.616H98.7397V110.088H96.4517V115H94.9477V110.088H90.6917V115H89.1877V103.48ZM100.239 103.48V112.424C101.711 111.549 102.847 110.264 103.647 108.568C104.372 107.011 104.735 105.315 104.735 103.48H106.239V115H104.735V109.72C103.391 112.195 101.391 113.955 98.7346 115V103.48H100.239ZM109.754 108.456C110.469 108.36 111.168 107.987 111.85 107.336C112.437 106.781 112.912 106.131 113.274 105.384C113.562 104.797 113.744 104.163 113.818 103.48H115.29C115.184 104.792 114.778 105.955 114.074 106.968C113.37 107.981 112.421 108.771 111.226 109.336C111.472 110.371 111.952 111.32 112.666 112.184C113.445 113.112 114.32 113.693 115.29 113.928V115.416C113.722 114.968 112.501 114.232 111.626 113.208C110.837 112.291 110.224 111 109.786 109.336H109.754V115H108.25V103.48H109.754V108.456ZM122.072 103.032C123.79 103.032 125.246 103.64 126.44 104.856C127.646 106.061 128.248 107.523 128.248 109.24C128.248 110.947 127.646 112.408 126.44 113.624C125.235 114.84 123.779 115.448 122.072 115.448C120.366 115.448 118.91 114.84 117.704 113.624C116.499 112.408 115.896 110.947 115.896 109.24C115.896 107.523 116.494 106.061 117.688 104.856C118.894 103.64 120.355 103.032 122.072 103.032ZM122.072 104.504C120.782 104.504 119.678 104.973 118.76 105.912C117.854 106.84 117.4 107.949 117.4 109.24C117.4 110.531 117.854 111.645 118.76 112.584C119.678 113.512 120.782 113.976 122.072 113.976C123.363 113.976 124.462 113.512 125.368 112.584C126.286 111.656 126.744 110.541 126.744 109.24C126.744 107.939 126.291 106.824 125.384 105.896C124.478 104.968 123.374 104.504 122.072 104.504ZM129.828 103.48C131.279 103.48 132.463 103.715 133.38 104.184C134.575 104.781 135.172 105.736 135.172 107.048C135.172 107.656 134.932 108.205 134.452 108.696C135.21 109.283 135.588 110.195 135.588 111.432C135.588 112.648 135.167 113.565 134.324 114.184C133.578 114.728 132.58 115 131.332 115H129.828V103.48ZM131.332 105.048V113.528C132.111 113.528 132.746 113.379 133.236 113.08C133.823 112.717 134.116 112.168 134.116 111.432C134.116 110.301 133.476 109.464 132.196 108.92C133.178 108.44 133.668 107.816 133.668 107.048C133.668 106.461 133.418 105.981 132.916 105.608C132.479 105.277 131.951 105.091 131.332 105.048Z" fill="#21A656"/>
</svg>
