<svg width="191" height="175" viewBox="0 0 191 175" fill="none" xmlns="http://www.w3.org/2000/svg">
<path d="M84.4379 23.1L69.438 1.3794L69.4349 1.3761L68.4894 0H0V174.9H191V23.1H84.4379ZM184.633 29.7V46.2H100.393L88.9996 29.7H184.633ZM6.36667 168.3V6.6H65.2106L81.1273 29.7H81.1655L96.0953 51.3183C96.716 52.2159 97.6933 52.6944 98.6833 52.6977V52.8H184.633V168.3H6.36667Z" fill="#3F4C79"/>
<path d="M65.5757 98H63.6017V86.723C63.6017 85.953 63.3707 85.337 62.9087 84.875C62.4467 84.399 61.8307 84.161 61.0607 84.161C60.3047 84.161 59.6887 84.399 59.2127 84.875C58.7507 85.351 58.5197 85.967 58.5197 86.723V98H56.5457V86.723C56.5457 85.449 56.9797 84.392 57.8477 83.552C58.7157 82.712 59.7867 82.292 61.0607 82.292C62.3487 82.292 63.4197 82.712 64.2737 83.552C65.1417 84.392 65.5757 85.449 65.5757 86.723V98ZM76.4256 82.88V98H74.4516V94.073H69.8526C69.3486 95.375 69.0196 96.684 68.8656 98H66.8916C67.2416 94.976 68.2706 92.106 69.9786 89.39C71.7006 86.674 73.8496 84.504 76.4256 82.88ZM70.6716 92.141H74.4516V86.891C72.8976 88.417 71.6376 90.167 70.6716 92.141ZM89.4162 85.715C87.9882 86.667 87.0572 87.885 86.6232 89.369C86.3432 90.321 86.2032 91.889 86.2032 94.073H84.2502C84.2502 92.967 84.2152 92.008 84.1452 91.196C84.0332 89.922 83.7462 88.872 83.2842 88.046C82.8222 87.206 82.0732 86.443 81.0372 85.757V98H79.0632V82.88C80.1412 82.88 81.3382 83.37 82.6542 84.35C83.9282 85.302 84.7822 86.296 85.2162 87.332C85.6642 86.296 86.5322 85.295 87.8202 84.329C89.1222 83.363 90.3122 82.88 91.3902 82.88V98H89.4162V85.715ZM99.4519 91.595C98.8639 93.373 98.1289 94.801 97.2469 95.879C96.2249 97.111 94.9019 98.014 93.2779 98.588V96.635C94.7339 95.963 95.9659 94.696 96.9739 92.834C96.1199 92.386 95.4269 91.749 94.8949 90.923C94.3629 90.097 94.0969 89.215 94.0969 88.277C94.0969 86.961 94.5729 85.813 95.5249 84.833C96.4209 83.909 97.5339 83.321 98.8639 83.069C99.5359 82.929 100.313 82.866 101.195 82.88H101.699V98H99.7249V85.001C98.7729 85.001 97.9399 85.302 97.2259 85.904C96.4559 86.548 96.0709 87.339 96.0709 88.277C96.0709 89.159 96.4209 89.922 97.1209 90.566C97.7789 91.168 98.5559 91.511 99.4519 91.595ZM109.41 98H107.436V84.329C106.246 84.539 105.14 85.12 104.118 86.072L103.404 84.077C104.986 82.887 106.659 82.292 108.423 82.292C110.383 82.292 112.07 82.887 113.484 84.077L112.749 86.072C111.629 85.162 110.516 84.581 109.41 84.329V98ZM117.151 89.411C118.089 89.285 119.006 88.795 119.902 87.941C120.672 87.213 121.295 86.359 121.771 85.379C122.149 84.609 122.387 83.776 122.485 82.88H124.417C124.277 84.602 123.745 86.128 122.821 87.458C121.897 88.788 120.651 89.824 119.083 90.566C119.405 91.924 120.035 93.17 120.973 94.304C121.995 95.522 123.143 96.285 124.417 96.593V98.546C122.359 97.958 120.756 96.992 119.608 95.648C118.572 94.444 117.767 92.75 117.193 90.566H117.151V98H115.177V82.88H117.151V89.411ZM134.463 82.88V98H132.489V94.073H127.89C127.386 95.375 127.057 96.684 126.903 98H124.929C125.279 94.976 126.308 92.106 128.016 89.39C129.738 86.674 131.887 84.504 134.463 82.88ZM128.709 92.141H132.489V86.891C130.935 88.417 129.675 90.167 128.709 92.141ZM30.3125 138H28.3385V126.723C28.3385 125.953 28.1075 125.337 27.6455 124.875C27.1835 124.399 26.5675 124.161 25.7975 124.161C25.0415 124.161 24.4255 124.399 23.9495 124.875C23.4875 125.351 23.2565 125.967 23.2565 126.723V138H21.2825V126.723C21.2825 125.449 21.7165 124.392 22.5845 123.552C23.4525 122.712 24.5235 122.292 25.7975 122.292C27.0855 122.292 28.1565 122.712 29.0105 123.552C29.8785 124.392 30.3125 125.449 30.3125 126.723V138ZM34.3584 131.427C34.6104 132.911 35.3174 134.15 36.4794 135.144C37.6554 136.124 38.9924 136.614 40.4904 136.614V138.588C38.2504 138.588 36.3394 137.79 34.7574 136.194C33.1754 134.598 32.3844 132.68 32.3844 130.44C32.3844 128.186 33.1684 126.268 34.7364 124.686C36.3184 123.09 38.2364 122.292 40.4904 122.292V124.266C38.9784 124.266 37.6414 124.756 36.4794 125.736C35.3174 126.716 34.6104 127.955 34.3584 129.453H40.4904V131.427H34.3584ZM44.9127 133.548V138H42.9387V122.88C44.2687 122.88 45.3397 122.964 46.1517 123.132C47.3977 123.384 48.4407 123.993 49.2807 124.959C50.1207 125.925 50.5407 127.031 50.5407 128.277C50.5407 129.775 49.9807 131.028 48.8607 132.036C47.7407 133.044 46.4247 133.548 44.9127 133.548ZM44.9127 131.595C45.8647 131.595 46.7117 131.28 47.4537 130.65C48.1957 130.006 48.5667 129.215 48.5667 128.277C48.5667 127.339 48.1887 126.548 47.4327 125.904C46.7047 125.302 45.8647 125.001 44.9127 125.001V131.595ZM52.6184 122.88C54.5224 122.88 56.0764 123.188 57.2804 123.804C58.8484 124.588 59.6324 125.841 59.6324 127.563C59.6324 128.361 59.3174 129.082 58.6874 129.726C59.6814 130.496 60.1784 131.693 60.1784 133.317C60.1784 134.913 59.6254 136.117 58.5194 136.929C57.5394 137.643 56.2304 138 54.5924 138H52.6184V122.88ZM54.5924 124.938V136.068C55.6144 136.068 56.4474 135.872 57.0914 135.48C57.8614 135.004 58.2464 134.283 58.2464 133.317C58.2464 131.833 57.4064 130.734 55.7264 130.02C57.0144 129.39 57.6584 128.571 57.6584 127.563C57.6584 126.793 57.3294 126.163 56.6714 125.673C56.0974 125.239 55.4044 124.994 54.5924 124.938ZM69.7961 122.292C72.0501 122.292 73.9611 123.09 75.5291 124.686C77.1111 126.268 77.9021 128.186 77.9021 130.44C77.9021 132.68 77.1111 134.598 75.5291 136.194C73.9471 137.79 72.0361 138.588 69.7961 138.588C67.5561 138.588 65.6451 137.79 64.0631 136.194C62.4811 134.598 61.6901 132.68 61.6901 130.44C61.6901 128.186 62.4741 126.268 64.0421 124.686C65.6241 123.09 67.5421 122.292 69.7961 122.292ZM69.7961 124.224C68.1021 124.224 66.6531 124.84 65.4491 126.072C64.2591 127.29 63.6641 128.746 63.6641 130.44C63.6641 132.134 64.2591 133.597 65.4491 134.829C66.6531 136.047 68.1021 136.656 69.7961 136.656C71.4901 136.656 72.9321 136.047 74.1221 134.829C75.3261 133.611 75.9281 132.148 75.9281 130.44C75.9281 128.732 75.3331 127.269 74.1431 126.051C72.9531 124.833 71.5041 124.224 69.7961 124.224ZM81.9498 129.411C82.8878 129.285 83.8048 128.795 84.7008 127.941C85.4708 127.213 86.0938 126.359 86.5698 125.379C86.9478 124.609 87.1858 123.776 87.2838 122.88H89.2158C89.0758 124.602 88.5438 126.128 87.6198 127.458C86.6958 128.788 85.4498 129.824 83.8818 130.566C84.2038 131.924 84.8338 133.17 85.7718 134.304C86.7938 135.522 87.9418 136.285 89.2158 136.593V138.546C87.1578 137.958 85.5548 136.992 84.4068 135.648C83.3708 134.444 82.5658 132.75 81.9918 130.566H81.9498V138H79.9758V122.88H81.9498V129.411ZM92.4151 138.546V136.677C94.4171 136.677 95.5791 136.194 95.9011 135.228C95.9991 134.934 96.0481 134.374 96.0481 133.548C94.5501 133.548 93.2481 133.044 92.1421 132.036C91.0361 131.014 90.4831 129.761 90.4831 128.277V122.88H92.4151V128.277C92.4151 129.215 92.7931 130.006 93.5491 130.65C94.2631 131.28 95.0961 131.595 96.0481 131.595V122.88H98.0221V134.115C98.0221 135.767 97.4761 136.95 96.3841 137.664C95.4881 138.252 94.1651 138.546 92.4151 138.546ZM102.519 133.548V138H100.545V122.88C101.875 122.88 102.946 122.964 103.758 123.132C105.004 123.384 106.047 123.993 106.887 124.959C107.727 125.925 108.147 127.031 108.147 128.277C108.147 129.775 107.587 131.028 106.467 132.036C105.347 133.044 104.031 133.548 102.519 133.548ZM102.519 131.595C103.471 131.595 104.318 131.28 105.06 130.65C105.802 130.006 106.173 129.215 106.173 128.277C106.173 127.339 105.795 126.548 105.039 125.904C104.311 125.302 103.471 125.001 102.519 125.001V131.595ZM123.098 136.593C121.516 137.923 119.745 138.588 117.785 138.588C115.559 138.588 113.648 137.79 112.052 136.194C110.456 134.584 109.658 132.666 109.658 130.44C109.658 128.2 110.449 126.282 112.031 124.686C113.627 123.09 115.545 122.292 117.785 122.292C119.759 122.292 121.53 122.971 123.098 124.329V127.332C122.538 126.366 121.789 125.61 120.851 125.064C119.927 124.518 118.905 124.245 117.785 124.245C116.091 124.245 114.642 124.854 113.438 126.072C112.234 127.29 111.632 128.746 111.632 130.44C111.632 132.148 112.227 133.611 113.417 134.829C114.621 136.033 116.077 136.635 117.785 136.635C118.877 136.635 119.899 136.362 120.851 135.816C121.803 135.256 122.552 134.5 123.098 133.548V136.593ZM125.421 122.88H127.395V129.621H132.981V122.88H134.955V129.621H137.958V131.553H134.955V138H132.981V131.553H127.395V138H125.421V122.88ZM139.925 122.88V134.619C141.857 133.471 143.348 131.784 144.398 129.558C145.35 127.514 145.826 125.288 145.826 122.88H147.8V138H145.826V131.07C144.062 134.318 141.437 136.628 137.951 138V122.88H139.925ZM152.415 129.411C153.353 129.285 154.27 128.795 155.166 127.941C155.936 127.213 156.559 126.359 157.035 125.379C157.413 124.609 157.651 123.776 157.749 122.88H159.681C159.541 124.602 159.009 126.128 158.085 127.458C157.161 128.788 155.915 129.824 154.347 130.566C154.669 131.924 155.299 133.17 156.237 134.304C157.259 135.522 158.407 136.285 159.681 136.593V138.546C157.623 137.958 156.02 136.992 154.872 135.648C153.836 134.444 153.031 132.75 152.457 130.566H152.415V138H150.441V122.88H152.415V129.411ZM169.726 122.88V138H167.752V134.073H163.153C162.649 135.375 162.32 136.684 162.166 138H160.192C160.542 134.976 161.571 132.106 163.279 129.39C165.001 126.674 167.15 124.504 169.726 122.88ZM163.972 132.141H167.752V126.891C166.198 128.417 164.938 130.167 163.972 132.141Z" fill="#21A656"/>
</svg>
