<svg width="189" height="190" viewBox="0 0 189 190" fill="none" xmlns="http://www.w3.org/2000/svg">
<path d="M3.73086 9.84201C1.74069 10.678 1.84842 6.71271 1.92213 84.3942C2.02986 155.452 2.02986 156.036 2.75373 156.835C3.15252 157.272 13.6836 162.803 26.1708 169.06C42.9276 177.466 49.225 180.485 50.1663 180.485C51.0716 180.485 57.1517 177.61 73.0409 169.605L94.6833 158.764L118.029 169.607C134.46 177.247 141.771 180.451 142.676 180.487C143.689 180.487 148.286 178.121 164.574 169.208C175.902 162.986 185.566 157.493 186.072 156.984L186.978 156.11L187.085 84.6868C187.157 34.1487 187.085 12.901 186.796 11.9187C186.29 10.0985 185.059 9.3347 183.069 9.58931C181.984 9.69951 176.229 12.6825 162.187 20.3946C151.546 26.2523 142.678 31.0555 142.461 31.0555C142.279 31.0555 131.674 26.1801 118.9 20.2502C102.323 12.5362 95.3751 9.48099 94.4697 9.51709C93.6003 9.51709 86.906 12.7186 71.7047 20.3604L50.17 31.2037L28.5258 20.3604C6.59043 9.33281 5.82876 9.006 3.73086 9.84201ZM118.029 28.0345C133.447 35.1652 141.952 38.95 142.712 38.95C143.581 38.95 148.792 36.2577 161.497 29.3075C171.16 23.9951 179.268 19.665 179.484 19.665C179.809 19.665 179.919 36.1475 179.919 85.8838V152.103L178.579 152.939C175.9 154.576 142.82 172.586 142.459 172.586C142.277 172.586 131.637 167.711 118.86 161.781C104.347 155.053 95.2258 151.014 94.5378 151.014C93.778 151.014 86.0687 154.725 71.7009 161.929L49.9848 172.845L29.6087 162.585L9.26856 152.287L9.16083 85.7755C9.12492 41.3858 9.19674 19.3002 9.45 19.3002C9.66735 19.3002 18.607 23.7025 29.3555 29.1232C43.3264 36.1456 49.225 38.9462 50.0585 38.9101C50.8542 38.9101 58.2385 35.3799 72.7877 28.0307C84.6228 22.0628 94.3582 17.1513 94.3941 17.1513C94.466 17.119 105.071 22.0305 118.029 28.0345Z" fill="#3F4C79"/>
<path d="M71.3219 76.229C72.1705 76.115 73.0002 75.6717 73.8109 74.899C74.5075 74.2403 75.0712 73.4677 75.5019 72.581C75.8439 71.8843 76.0592 71.1307 76.1479 70.32H77.8959C77.7692 71.878 77.2879 73.2587 76.4519 74.462C75.6159 75.6653 74.4885 76.6027 73.0699 77.274C73.3612 78.5027 73.9312 79.63 74.7799 80.656C75.7045 81.758 76.7432 82.4483 77.8959 82.727V84.494C76.0339 83.962 74.5835 83.088 73.5449 81.872C72.6075 80.7827 71.8792 79.25 71.3599 77.274H71.3219V84H69.5359V70.32H71.3219V76.229ZM79.5554 70.32C81.2781 70.32 82.6841 70.5987 83.7734 71.156C85.1921 71.8653 85.9014 72.999 85.9014 74.557C85.9014 75.279 85.6164 75.9313 85.0464 76.514C85.9457 77.2107 86.3954 78.2937 86.3954 79.763C86.3954 81.207 85.8951 82.2963 84.8944 83.031C84.0077 83.677 82.8234 84 81.3414 84H79.5554V70.32ZM81.3414 72.182V82.252C82.2661 82.252 83.0197 82.0747 83.6024 81.72C84.2991 81.2893 84.6474 80.637 84.6474 79.763C84.6474 78.4203 83.8874 77.426 82.3674 76.78C83.5327 76.21 84.1154 75.469 84.1154 74.557C84.1154 73.8603 83.8177 73.2903 83.2224 72.847C82.7031 72.4543 82.0761 72.2327 81.3414 72.182ZM89.5491 78.053C89.7771 79.3957 90.4168 80.5167 91.4681 81.416C92.5321 82.3027 93.7418 82.746 95.0971 82.746V84.532C93.0704 84.532 91.3414 83.81 89.9101 82.366C88.4788 80.922 87.7631 79.1867 87.7631 77.16C87.7631 75.1207 88.4724 73.3853 89.8911 71.954C91.3224 70.51 93.0578 69.788 95.0971 69.788V71.574C93.7291 71.574 92.5194 72.0173 91.4681 72.904C90.4168 73.7907 89.7771 74.9117 89.5491 76.267H95.0971V78.053H89.5491ZM108.959 82.727C107.528 83.9303 105.926 84.532 104.152 84.532C102.138 84.532 100.409 83.81 98.9652 82.366C97.5212 80.9093 96.7992 79.174 96.7992 77.16C96.7992 75.1333 97.5149 73.398 98.9462 71.954C100.39 70.51 102.126 69.788 104.152 69.788C105.938 69.788 107.541 70.4023 108.959 71.631V74.348C108.453 73.474 107.775 72.79 106.926 72.296C106.09 71.802 105.166 71.555 104.152 71.555C102.62 71.555 101.309 72.106 100.219 73.208C99.1299 74.31 98.5852 75.6273 98.5852 77.16C98.5852 78.7053 99.1236 80.029 100.2 81.131C101.29 82.2203 102.607 82.765 104.152 82.765C105.14 82.765 106.065 82.518 106.926 82.024C107.788 81.5173 108.465 80.8333 108.959 79.972V82.727ZM115.64 84H113.854V71.631C112.778 71.821 111.777 72.3467 110.852 73.208L110.206 71.403C111.638 70.3263 113.151 69.788 114.747 69.788C116.521 69.788 118.047 70.3263 119.326 71.403L118.661 73.208C117.648 72.3847 116.641 71.859 115.64 71.631V84ZM27.7659 120H25.9799V109.797C25.9799 109.1 25.7709 108.543 25.3529 108.125C24.9349 107.694 24.3776 107.479 23.6809 107.479C22.9969 107.479 22.4396 107.694 22.0089 108.125C21.5909 108.556 21.3819 109.113 21.3819 109.797V120H19.5959V109.797C19.5959 108.644 19.9886 107.688 20.7739 106.928C21.5593 106.168 22.5283 105.788 23.6809 105.788C24.8463 105.788 25.8153 106.168 26.5879 106.928C27.3733 107.688 27.7659 108.644 27.7659 109.797V120ZM31.4265 114.053C31.6545 115.396 32.2942 116.517 33.3455 117.416C34.4095 118.303 35.6192 118.746 36.9745 118.746V120.532C34.9479 120.532 33.2189 119.81 31.7875 118.366C30.3562 116.922 29.6405 115.187 29.6405 113.16C29.6405 111.121 30.3499 109.385 31.7685 107.954C33.1999 106.51 34.9352 105.788 36.9745 105.788V107.574C35.6065 107.574 34.3969 108.017 33.3455 108.904C32.2942 109.791 31.6545 110.912 31.4265 112.267H36.9745V114.053H31.4265ZM40.9757 115.972V120H39.1897V106.32C40.393 106.32 41.362 106.396 42.0967 106.548C43.224 106.776 44.1677 107.327 44.9277 108.201C45.6877 109.075 46.0677 110.076 46.0677 111.203C46.0677 112.558 45.561 113.692 44.5477 114.604C43.5343 115.516 42.3437 115.972 40.9757 115.972ZM40.9757 114.205C41.837 114.205 42.6033 113.92 43.2747 113.35C43.946 112.767 44.2817 112.052 44.2817 111.203C44.2817 110.354 43.9397 109.639 43.2557 109.056C42.597 108.511 41.837 108.239 40.9757 108.239V114.205ZM47.9475 106.32C49.6702 106.32 51.0762 106.599 52.1655 107.156C53.5842 107.865 54.2935 108.999 54.2935 110.557C54.2935 111.279 54.0085 111.931 53.4385 112.514C54.3378 113.211 54.7875 114.294 54.7875 115.763C54.7875 117.207 54.2872 118.296 53.2865 119.031C52.3998 119.677 51.2155 120 49.7335 120H47.9475V106.32ZM49.7335 108.182V118.252C50.6582 118.252 51.4118 118.075 51.9945 117.72C52.6912 117.289 53.0395 116.637 53.0395 115.763C53.0395 114.42 52.2795 113.426 50.7595 112.78C51.9248 112.21 52.5075 111.469 52.5075 110.557C52.5075 109.86 52.2098 109.29 51.6145 108.847C51.0952 108.454 50.4682 108.233 49.7335 108.182ZM63.4892 105.788C65.5285 105.788 67.2575 106.51 68.6762 107.954C70.1075 109.385 70.8232 111.121 70.8232 113.16C70.8232 115.187 70.1075 116.922 68.6762 118.366C67.2449 119.81 65.5159 120.532 63.4892 120.532C61.4625 120.532 59.7335 119.81 58.3022 118.366C56.8709 116.922 56.1552 115.187 56.1552 113.16C56.1552 111.121 56.8645 109.385 58.2832 107.954C59.7145 106.51 61.4499 105.788 63.4892 105.788ZM63.4892 107.536C61.9565 107.536 60.6455 108.093 59.5562 109.208C58.4795 110.31 57.9412 111.627 57.9412 113.16C57.9412 114.693 58.4795 116.016 59.5562 117.131C60.6455 118.233 61.9565 118.784 63.4892 118.784C65.0219 118.784 66.3265 118.233 67.4032 117.131C68.4925 116.029 69.0372 114.705 69.0372 113.16C69.0372 111.615 68.4989 110.291 67.4222 109.189C66.3455 108.087 65.0345 107.536 63.4892 107.536ZM74.4854 112.229C75.3341 112.115 76.1638 111.672 76.9744 110.899C77.6711 110.24 78.2348 109.468 78.6654 108.581C79.0074 107.884 79.2228 107.131 79.3114 106.32H81.0594C80.9328 107.878 80.4514 109.259 79.6154 110.462C78.7794 111.665 77.6521 112.603 76.2334 113.274C76.5248 114.503 77.0948 115.63 77.9434 116.656C78.8681 117.758 79.9068 118.448 81.0594 118.727V120.494C79.1974 119.962 77.7471 119.088 76.7084 117.872C75.7711 116.783 75.0428 115.25 74.5234 113.274H74.4854V120H72.6994V106.32H74.4854V112.229ZM83.954 120.494V118.803C85.7653 118.803 86.8166 118.366 87.108 117.492C87.1966 117.226 87.241 116.719 87.241 115.972C85.8856 115.972 84.7076 115.516 83.707 114.604C82.7063 113.679 82.206 112.546 82.206 111.203V106.32H83.954V111.203C83.954 112.052 84.296 112.767 84.98 113.35C85.626 113.92 86.3796 114.205 87.241 114.205V106.32H89.027V116.485C89.027 117.98 88.533 119.05 87.545 119.696C86.7343 120.228 85.5373 120.494 83.954 120.494ZM93.0958 115.972V120H91.3098V106.32C92.5131 106.32 93.4821 106.396 94.2168 106.548C95.3441 106.776 96.2878 107.327 97.0478 108.201C97.8078 109.075 98.1878 110.076 98.1878 111.203C98.1878 112.558 97.6811 113.692 96.6678 114.604C95.6545 115.516 94.4638 115.972 93.0958 115.972ZM93.0958 114.205C93.9571 114.205 94.7235 113.92 95.3948 113.35C96.0661 112.767 96.4018 112.052 96.4018 111.203C96.4018 110.354 96.0598 109.639 95.3758 109.056C94.7171 108.511 93.9571 108.239 93.0958 108.239V114.205ZM111.715 118.727C110.283 119.93 108.681 120.532 106.908 120.532C104.894 120.532 103.165 119.81 101.721 118.366C100.277 116.909 99.5546 115.174 99.5546 113.16C99.5546 111.133 100.27 109.398 101.702 107.954C103.146 106.51 104.881 105.788 106.908 105.788C108.694 105.788 110.296 106.402 111.715 107.631V110.348C111.208 109.474 110.53 108.79 109.682 108.296C108.846 107.802 107.921 107.555 106.908 107.555C105.375 107.555 104.064 108.106 102.975 109.208C101.885 110.31 101.341 111.627 101.341 113.16C101.341 114.705 101.879 116.029 102.956 117.131C104.045 118.22 105.362 118.765 106.908 118.765C107.896 118.765 108.82 118.518 109.682 118.024C110.543 117.517 111.221 116.833 111.715 115.972V118.727ZM113.817 106.32H115.603V112.419H120.657V106.32H122.443V112.419H125.16V114.167H122.443V120H120.657V114.167H115.603V120H113.817V106.32ZM126.94 106.32V116.941C128.688 115.902 130.037 114.376 130.987 112.362C131.848 110.513 132.279 108.499 132.279 106.32H134.065V120H132.279V113.73C130.683 116.669 128.308 118.759 125.154 120V106.32H126.94ZM138.239 112.229C139.088 112.115 139.918 111.672 140.728 110.899C141.425 110.24 141.989 109.468 142.419 108.581C142.761 107.884 142.977 107.131 143.065 106.32H144.813C144.687 107.878 144.205 109.259 143.369 110.462C142.533 111.665 141.406 112.603 139.987 113.274C140.279 114.503 140.849 115.63 141.697 116.656C142.622 117.758 143.661 118.448 144.813 118.727V120.494C142.951 119.962 141.501 119.088 140.462 117.872C139.525 116.783 138.797 115.25 138.277 113.274H138.239V120H136.453V106.32H138.239V112.229ZM152.867 105.788C154.906 105.788 156.635 106.51 158.054 107.954C159.485 109.385 160.201 111.121 160.201 113.16C160.201 115.187 159.485 116.922 158.054 118.366C156.623 119.81 154.894 120.532 152.867 120.532C150.84 120.532 149.111 119.81 147.68 118.366C146.249 116.922 145.533 115.187 145.533 113.16C145.533 111.121 146.242 109.385 147.661 107.954C149.092 106.51 150.828 105.788 152.867 105.788ZM152.867 107.536C151.334 107.536 150.023 108.093 148.934 109.208C147.857 110.31 147.319 111.627 147.319 113.16C147.319 114.693 147.857 116.016 148.934 117.131C150.023 118.233 151.334 118.784 152.867 118.784C154.4 118.784 155.704 118.233 156.781 117.131C157.87 116.029 158.415 114.705 158.415 113.16C158.415 111.615 157.877 110.291 156.8 109.189C155.723 108.087 154.412 107.536 152.867 107.536ZM162.077 106.32C163.8 106.32 165.206 106.599 166.295 107.156C167.714 107.865 168.423 108.999 168.423 110.557C168.423 111.279 168.138 111.931 167.568 112.514C168.468 113.211 168.917 114.294 168.917 115.763C168.917 117.207 168.417 118.296 167.416 119.031C166.53 119.677 165.345 120 163.863 120H162.077V106.32ZM163.863 108.182V118.252C164.788 118.252 165.542 118.075 166.124 117.72C166.821 117.289 167.169 116.637 167.169 115.763C167.169 114.42 166.409 113.426 164.889 112.78C166.055 112.21 166.637 111.469 166.637 110.557C166.637 109.86 166.34 109.29 165.744 108.847C165.225 108.454 164.598 108.233 163.863 108.182Z" fill="#21A656"/>
</svg>
