<svg width="191" height="181" viewBox="0 0 191 181" fill="none" xmlns="http://www.w3.org/2000/svg">
<path d="M167.138 0.0720993H52.6022C52.0061 -0.0240331 51.3849 -0.0240331 50.7887 0.0720993C50.1931 0.209867 49.6649 0.455739 49.2616 0.782887L1.5382 33.0914C0.848255 33.3926 0.340374 33.8511 0.106499 34.3838C-0.0354996 34.7874 -0.0354996 35.2079 0.106499 35.6115V164.846C0.106499 169.13 2.62049 173.239 7.09543 176.269C11.5704 179.298 17.6397 181 23.9682 181H167.138C173.467 181 179.536 179.298 184.011 176.269C188.486 173.239 191 169.13 191 164.846V16.2264C191 11.942 188.486 7.83309 184.011 4.80358C179.536 1.77406 173.467 0.0720993 167.138 0.0720993ZM47.8299 11.1216V22.6881C47.8299 25.2587 46.3215 27.7241 43.6365 29.5418C40.9516 31.3595 37.31 32.3807 33.5129 32.3807H16.4279L47.8299 11.1216ZM181.455 164.846C181.455 167.416 179.947 169.882 177.262 171.699C174.577 173.517 170.935 174.538 167.138 174.538H23.9682C20.1711 174.538 16.5295 173.517 13.8445 171.699C11.1596 169.882 9.65117 167.416 9.65117 164.846V38.8424H33.5129C36.6464 38.8424 39.7493 38.4245 42.6443 37.6127C45.5394 36.8009 48.1699 35.6109 50.3856 34.1109C52.6014 32.6108 54.359 30.83 55.5582 28.8701C56.7574 26.9101 57.3745 24.8095 57.3745 22.6881V6.53381H167.138C170.935 6.53381 174.577 7.55499 177.262 9.3727C179.947 11.1904 181.455 13.6557 181.455 16.2264V164.846Z" fill="#3F4C79"/>
<path d="M58.263 85H55.631V69.964C55.631 68.9373 55.323 68.116 54.707 67.5C54.091 66.8653 53.2697 66.548 52.243 66.548C51.235 66.548 50.4137 66.8653 49.779 67.5C49.163 68.1347 48.855 68.956 48.855 69.964V85H46.223V69.964C46.223 68.2653 46.8017 66.856 47.959 65.736C49.1163 64.616 50.5443 64.056 52.243 64.056C53.9603 64.056 55.3883 64.616 56.527 65.736C57.6843 66.856 58.263 68.2653 58.263 69.964V85ZM71.8336 64.056C74.8389 64.056 77.3869 65.12 79.4776 67.248C81.5869 69.3573 82.6416 71.9147 82.6416 74.92C82.6416 77.9067 81.5869 80.464 79.4776 82.592C77.3682 84.72 74.8202 85.784 71.8336 85.784C68.8469 85.784 66.2989 84.72 64.1896 82.592C62.0802 80.464 61.0256 77.9067 61.0256 74.92C61.0256 71.9147 62.0709 69.3573 64.1616 67.248C66.2709 65.12 68.8282 64.056 71.8336 64.056ZM71.8336 66.632C69.5749 66.632 67.6429 67.4533 66.0376 69.096C64.4509 70.72 63.6576 72.6613 63.6576 74.92C63.6576 77.1787 64.4509 79.1293 66.0376 80.772C67.6429 82.396 69.5749 83.208 71.8336 83.208C74.0922 83.208 76.0149 82.396 77.6016 80.772C79.2069 79.148 80.0096 77.1973 80.0096 74.92C80.0096 72.6427 79.2162 70.692 77.6296 69.068C76.0429 67.444 74.1109 66.632 71.8336 66.632ZM100.779 85H83.6426V82.592H86.2186V69.964C86.2186 68.3587 86.8159 66.9773 88.0106 65.82C89.2052 64.644 90.6052 64.056 92.2106 64.056C93.8159 64.056 95.2159 64.644 96.4106 65.82C97.6052 66.9773 98.2026 68.3587 98.2026 69.964V82.592H100.779V85ZM88.8506 82.592H95.5706V69.964C95.5706 69.068 95.2346 68.2933 94.5626 67.64C93.8906 66.9867 93.1066 66.66 92.2106 66.66C91.3146 66.66 90.5306 66.9867 89.8586 67.64C89.1866 68.2933 88.8506 69.068 88.8506 69.964V82.592ZM113.499 64.84V85H110.867V79.764H104.735C104.063 81.5 103.624 83.2453 103.419 85H100.787C101.254 80.968 102.626 77.1413 104.903 73.52C107.199 69.8987 110.064 67.0053 113.499 64.84ZM105.827 77.188H110.867V70.188C108.795 72.2227 107.115 74.556 105.827 77.188ZM123.764 85H121.132V66.772C119.545 67.052 118.071 67.8267 116.708 69.096L115.756 66.436C117.865 64.8493 120.096 64.056 122.448 64.056C125.061 64.056 127.311 64.8493 129.196 66.436L128.216 69.096C126.723 67.8827 125.239 67.108 123.764 66.772V85ZM134.085 70.776C136.101 70.776 137.847 71.448 139.321 72.792C140.796 74.136 141.533 75.8067 141.533 77.804C141.533 80.38 140.441 82.284 138.257 83.516C136.503 84.5053 134.235 85 131.453 85V64.84H134.085V70.776ZM134.085 73.38V82.424C135.355 82.424 136.465 81.976 137.417 81.08C138.388 80.1653 138.873 79.0733 138.873 77.804C138.873 76.5347 138.397 75.48 137.445 74.64C136.493 73.8 135.373 73.38 134.085 73.38ZM23.7267 135.96H26.3027C26.3027 136.931 26.6574 137.733 27.3667 138.368C28.0761 139.003 28.9254 139.32 29.9147 139.32C31.0161 139.32 31.9401 138.928 32.6867 138.144C33.4334 137.341 33.8067 136.389 33.8067 135.288C33.8067 132.339 32.1827 130.528 28.9347 129.856C30.1854 129.408 31.0907 128.932 31.6507 128.428C32.4347 127.737 32.8267 126.823 32.8267 125.684C32.8267 124.825 32.5374 124.088 31.9587 123.472C31.3987 122.856 30.6987 122.548 29.8587 122.548C29.0934 122.548 28.4121 122.791 27.8147 123.276C27.2361 123.761 26.9187 124.387 26.8627 125.152H24.4547C24.6041 123.64 25.1734 122.417 26.1627 121.484C27.1707 120.532 28.4214 120.056 29.9147 120.056C31.4454 120.056 32.7521 120.607 33.8347 121.708C34.9174 122.809 35.4587 124.135 35.4587 125.684C35.4587 127.364 34.8334 128.745 33.5827 129.828C35.4867 131.079 36.4387 132.899 36.4387 135.288C36.4387 137.099 35.8041 138.639 34.5347 139.908C33.2654 141.177 31.7254 141.812 29.9147 141.812C28.2534 141.812 26.8067 141.252 25.5747 140.132C24.3427 139.012 23.7267 137.621 23.7267 135.96ZM50.171 120.84V141H47.539V135.764H41.407C40.735 137.5 40.2963 139.245 40.091 141H37.459C37.9257 136.968 39.2977 133.141 41.575 129.52C43.871 125.899 46.7363 123.005 50.171 120.84ZM42.499 133.188H47.539V126.188C45.467 128.223 43.787 130.556 42.499 133.188ZM60.9118 132.46C60.1278 134.831 59.1478 136.735 57.9718 138.172C56.6092 139.815 54.8452 141.019 52.6798 141.784V139.18C54.6212 138.284 56.2638 136.595 57.6078 134.112C56.4692 133.515 55.5452 132.665 54.8358 131.564C54.1265 130.463 53.7718 129.287 53.7718 128.036C53.7718 126.281 54.4065 124.751 55.6758 123.444C56.8705 122.212 58.3545 121.428 60.1278 121.092C61.0238 120.905 62.0598 120.821 63.2358 120.84H63.9078V141H61.2758V123.668C60.0065 123.668 58.8958 124.069 57.9438 124.872C56.9172 125.731 56.4038 126.785 56.4038 128.036C56.4038 129.212 56.8705 130.229 57.8038 131.088C58.6812 131.891 59.7172 132.348 60.9118 132.46ZM67.4417 120.84C69.9804 120.84 72.0524 121.251 73.6577 122.072C75.7484 123.117 76.7937 124.788 76.7937 127.084C76.7937 128.148 76.3737 129.109 75.5337 129.968C76.8591 130.995 77.5217 132.591 77.5217 134.756C77.5217 136.884 76.7844 138.489 75.3097 139.572C74.0031 140.524 72.2577 141 70.0737 141H67.4417V120.84ZM70.0737 123.584V138.424C71.4364 138.424 72.5471 138.163 73.4057 137.64C74.4324 137.005 74.9457 136.044 74.9457 134.756C74.9457 132.777 73.8257 131.312 71.5857 130.36C73.3031 129.52 74.1617 128.428 74.1617 127.084C74.1617 126.057 73.7231 125.217 72.8457 124.564C72.0804 123.985 71.1564 123.659 70.0737 123.584ZM78.5293 141.728V139.236C79.556 139.236 80.3773 138.928 80.9933 138.312C81.628 137.677 81.9453 136.847 81.9453 135.82V125.964C81.9453 124.377 82.5333 122.996 83.7093 121.82C84.8853 120.644 86.2853 120.056 87.9093 120.056C89.5146 120.056 90.9146 120.644 92.1093 121.82C93.304 122.977 93.9013 124.359 93.9013 125.964V141H91.2693V125.964C91.2693 125.068 90.9333 124.293 90.2613 123.64C89.5893 122.987 88.8053 122.66 87.9093 122.66C87.0133 122.66 86.22 122.987 85.5293 123.64C84.8386 124.293 84.4933 125.068 84.4933 125.964V135.82C84.4933 137.575 83.924 139.003 82.7853 140.104C81.6653 141.187 80.2466 141.728 78.5293 141.728ZM99.1498 132.236C99.4858 134.215 100.428 135.867 101.978 137.192C103.546 138.499 105.328 139.152 107.326 139.152V141.784C104.339 141.784 101.791 140.72 99.6818 138.592C97.5724 136.464 96.5178 133.907 96.5178 130.92C96.5178 127.915 97.5631 125.357 99.6538 123.248C101.763 121.12 104.32 120.056 107.326 120.056V122.688C105.31 122.688 103.527 123.341 101.978 124.648C100.428 125.955 99.4858 127.607 99.1498 129.604H107.326V132.236H99.1498ZM110.59 120.84H113.222V129.828H120.67V120.84H123.302V129.828H127.306V132.404H123.302V141H120.67V132.404H113.222V141H110.59V120.84ZM129.929 120.84V136.492C132.505 134.961 134.493 132.712 135.893 129.744C137.163 127.019 137.797 124.051 137.797 120.84H140.429V141H137.797V131.76C135.445 136.091 131.945 139.171 127.297 141V120.84H129.929ZM145.826 132.236C146.162 134.215 147.104 135.867 148.654 137.192C150.222 138.499 152.004 139.152 154.002 139.152V141.784C151.015 141.784 148.467 140.72 146.358 138.592C144.248 136.464 143.194 133.907 143.194 130.92C143.194 127.915 144.239 125.357 146.33 123.248C148.439 121.12 150.996 120.056 154.002 120.056V122.688C151.986 122.688 150.203 123.341 148.654 124.648C147.104 125.955 146.162 127.607 145.826 129.604H154.002V132.236H145.826ZM159.842 137.36C160.346 137.36 160.775 137.537 161.13 137.892C161.503 138.247 161.69 138.676 161.69 139.18C161.69 139.665 161.503 140.095 161.13 140.468C160.757 140.823 160.327 141 159.842 141C159.357 141 158.927 140.823 158.554 140.468C158.199 140.095 158.022 139.665 158.022 139.18C158.022 138.676 158.199 138.247 158.554 137.892C158.909 137.537 159.338 137.36 159.842 137.36ZM158.554 120.84H161.158V135.708H158.554V120.84Z" fill="#21A656"/>
</svg>
